<svg width="96" height="115" viewBox="0 0 96 115" fill="none" xmlns="http://www.w3.org/2000/svg">
<circle cx="2.5" cy="2.5" r="2.5" fill="white"/>
<circle cx="2.5" cy="62.5" r="2.5" fill="white"/>
<circle cx="82.5" cy="2.5" r="2.5" fill="white"/>
<circle cx="82.5" cy="62.5" r="2.5" fill="white"/>
<circle cx="2.5" cy="12.5" r="2.5" fill="white"/>
<circle cx="2.5" cy="72.5" r="2.5" fill="white"/>
<circle cx="82.5" cy="12.5" r="2.5" fill="white"/>
<circle cx="82.5" cy="72.5" r="2.5" fill="white"/>
<circle cx="2.5" cy="22.5" r="2.5" fill="white"/>
<circle cx="2.5" cy="82.5" r="2.5" fill="white"/>
<circle cx="82.5" cy="22.5" r="2.5" fill="white"/>
<circle cx="82.5" cy="82.5" r="2.5" fill="white"/>
<circle cx="2.5" cy="32.5" r="2.5" fill="white"/>
<circle cx="2.5" cy="92.5" r="2.5" fill="white"/>
<circle cx="82.5" cy="32.5" r="2.5" fill="white"/>
<circle cx="82.5" cy="92.5" r="2.5" fill="white"/>
<circle cx="2.5" cy="42.5" r="2.5" fill="white"/>
<circle cx="2.5" cy="102.5" r="2.5" fill="white"/>
<circle cx="82.5" cy="42.5" r="2.5" fill="white"/>
<circle cx="82.5" cy="102.5" r="2.5" fill="white"/>
<circle cx="2.5" cy="52.5" r="2.5" fill="white"/>
<circle cx="2.5" cy="112.5" r="2.5" fill="white"/>
<circle cx="82.5" cy="52.5" r="2.5" fill="white"/>
<circle cx="82.5" cy="112.5" r="2.5" fill="white"/>
<circle cx="10.5" cy="2.5" r="2.5" fill="white"/>
<circle cx="10.5" cy="62.5" r="2.5" fill="white"/>
<circle cx="90.5" cy="2.5" r="2.5" fill="white"/>
<circle cx="90.5" cy="62.5" r="2.5" fill="white"/>
<circle cx="10.5" cy="12.5" r="2.5" fill="white"/>
<circle cx="10.5" cy="72.5" r="2.5" fill="white"/>
<circle cx="90.5" cy="12.5" r="2.5" fill="white"/>
<circle cx="90.5" cy="72.5" r="2.5" fill="white"/>
<circle cx="10.5" cy="22.5" r="2.5" fill="white"/>
<circle cx="10.5" cy="82.5" r="2.5" fill="white"/>
<circle cx="90.5" cy="22.5" r="2.5" fill="white"/>
<circle cx="90.5" cy="82.5" r="2.5" fill="white"/>
<circle cx="10.5" cy="32.5" r="2.5" fill="white"/>
<circle cx="10.5" cy="92.5" r="2.5" fill="white"/>
<circle cx="90.5" cy="32.5" r="2.5" fill="white"/>
<circle cx="90.5" cy="92.5" r="2.5" fill="white"/>
<circle cx="10.5" cy="42.5" r="2.5" fill="white"/>
<circle cx="10.5" cy="102.5" r="2.5" fill="white"/>
<circle cx="90.5" cy="42.5" r="2.5" fill="white"/>
<circle cx="90.5" cy="102.5" r="2.5" fill="white"/>
<circle cx="10.5" cy="52.5" r="2.5" fill="white"/>
<circle cx="10.5" cy="112.5" r="2.5" fill="white"/>
<circle cx="90.5" cy="52.5" r="2.5" fill="white"/>
<circle cx="90.5" cy="112.5" r="2.5" fill="white"/>
<circle cx="18.5" cy="2.5" r="2.5" fill="white"/>
<circle cx="18.5" cy="62.5" r="2.5" fill="white"/>
<circle cx="18.5" cy="12.5" r="2.5" fill="white"/>
<circle cx="18.5" cy="72.5" r="2.5" fill="white"/>
<circle cx="18.5" cy="22.5" r="2.5" fill="white"/>
<circle cx="18.5" cy="82.5" r="2.5" fill="white"/>
<circle cx="18.5" cy="32.5" r="2.5" fill="white"/>
<circle cx="18.5" cy="92.5" r="2.5" fill="white"/>
<circle cx="18.5" cy="42.5" r="2.5" fill="white"/>
<circle cx="18.5" cy="102.5" r="2.5" fill="white"/>
<circle cx="18.5" cy="52.5" r="2.5" fill="white"/>
<circle cx="18.5" cy="112.5" r="2.5" fill="white"/>
<circle cx="26.5" cy="2.5" r="2.5" fill="white"/>
<circle cx="26.5" cy="62.5" r="2.5" fill="white"/>
<circle cx="26.5" cy="12.5" r="2.5" fill="white"/>
<circle cx="26.5" cy="72.5" r="2.5" fill="white"/>
<circle cx="26.5" cy="22.5" r="2.5" fill="white"/>
<circle cx="26.5" cy="82.5" r="2.5" fill="white"/>
<circle cx="26.5" cy="32.5" r="2.5" fill="white"/>
<circle cx="26.5" cy="92.5" r="2.5" fill="white"/>
<circle cx="26.5" cy="42.5" r="2.5" fill="white"/>
<circle cx="26.5" cy="102.5" r="2.5" fill="white"/>
<circle cx="26.5" cy="52.5" r="2.5" fill="white"/>
<circle cx="26.5" cy="112.5" r="2.5" fill="white"/>
<circle cx="34.5" cy="2.5" r="2.5" fill="white"/>
<circle cx="34.5" cy="62.5" r="2.5" fill="white"/>
<circle cx="34.5" cy="12.5" r="2.5" fill="white"/>
<circle cx="34.5" cy="72.5" r="2.5" fill="white"/>
<circle cx="34.5" cy="22.5" r="2.5" fill="white"/>
<circle cx="34.5" cy="82.5" r="2.5" fill="white"/>
<circle cx="34.5" cy="32.5" r="2.5" fill="white"/>
<circle cx="34.5" cy="92.5" r="2.5" fill="white"/>
<circle cx="34.5" cy="42.5" r="2.5" fill="white"/>
<circle cx="34.5" cy="102.5" r="2.5" fill="white"/>
<circle cx="34.5" cy="52.5" r="2.5" fill="white"/>
<circle cx="34.5" cy="112.5" r="2.5" fill="white"/>
<circle cx="42.5" cy="2.5" r="2.5" fill="white"/>
<circle cx="42.5" cy="62.5" r="2.5" fill="white"/>
<circle cx="42.5" cy="12.5" r="2.5" fill="white"/>
<circle cx="42.5" cy="72.5" r="2.5" fill="white"/>
<circle cx="42.5" cy="22.5" r="2.5" fill="white"/>
<circle cx="42.5" cy="82.5" r="2.5" fill="white"/>
<circle cx="42.5" cy="32.5" r="2.5" fill="white"/>
<circle cx="42.5" cy="92.5" r="2.5" fill="white"/>
<circle cx="42.5" cy="42.5" r="2.5" fill="white"/>
<circle cx="42.5" cy="102.5" r="2.5" fill="white"/>
<circle cx="42.5" cy="52.5" r="2.5" fill="white"/>
<circle cx="42.5" cy="112.5" r="2.5" fill="white"/>
<circle cx="50.5" cy="2.5" r="2.5" fill="white"/>
<circle cx="50.5" cy="62.5" r="2.5" fill="white"/>
<circle cx="50.5" cy="12.5" r="2.5" fill="white"/>
<circle cx="50.5" cy="72.5" r="2.5" fill="white"/>
<circle cx="50.5" cy="22.5" r="2.5" fill="white"/>
<circle cx="50.5" cy="82.5" r="2.5" fill="white"/>
<circle cx="50.5" cy="32.5" r="2.5" fill="white"/>
<circle cx="50.5" cy="92.5" r="2.5" fill="white"/>
<circle cx="50.5" cy="42.5" r="2.5" fill="white"/>
<circle cx="50.5" cy="102.5" r="2.5" fill="white"/>
<circle cx="50.5" cy="52.5" r="2.5" fill="white"/>
<circle cx="50.5" cy="112.5" r="2.5" fill="white"/>
<circle cx="58.5" cy="2.5" r="2.5" fill="white"/>
<circle cx="58.5" cy="62.5" r="2.5" fill="white"/>
<circle cx="58.5" cy="12.5" r="2.5" fill="white"/>
<circle cx="58.5" cy="72.5" r="2.5" fill="white"/>
<circle cx="58.5" cy="22.5" r="2.5" fill="white"/>
<circle cx="58.5" cy="82.5" r="2.5" fill="white"/>
<circle cx="58.5" cy="32.5" r="2.5" fill="white"/>
<circle cx="58.5" cy="92.5" r="2.5" fill="white"/>
<circle cx="58.5" cy="42.5" r="2.5" fill="white"/>
<circle cx="58.5" cy="102.5" r="2.5" fill="white"/>
<circle cx="58.5" cy="52.5" r="2.5" fill="white"/>
<circle cx="58.5" cy="112.5" r="2.5" fill="white"/>
<circle cx="66.5" cy="2.5" r="2.5" fill="white"/>
<circle cx="66.5" cy="62.5" r="2.5" fill="white"/>
<circle cx="66.5" cy="12.5" r="2.5" fill="white"/>
<circle cx="66.5" cy="72.5" r="2.5" fill="white"/>
<circle cx="66.5" cy="22.5" r="2.5" fill="white"/>
<circle cx="66.5" cy="82.5" r="2.5" fill="white"/>
<circle cx="66.5" cy="32.5" r="2.5" fill="white"/>
<circle cx="66.5" cy="92.5" r="2.5" fill="white"/>
<circle cx="66.5" cy="42.5" r="2.5" fill="white"/>
<circle cx="66.5" cy="102.5" r="2.5" fill="white"/>
<circle cx="66.5" cy="52.5" r="2.5" fill="white"/>
<circle cx="66.5" cy="112.5" r="2.5" fill="white"/>
<circle cx="74.5" cy="2.5" r="2.5" fill="white"/>
<circle cx="74.5" cy="62.5" r="2.5" fill="white"/>
<circle cx="74.5" cy="12.5" r="2.5" fill="white"/>
<circle cx="74.5" cy="72.5" r="2.5" fill="white"/>
<circle cx="74.5" cy="22.5" r="2.5" fill="white"/>
<circle cx="74.5" cy="82.5" r="2.5" fill="white"/>
<circle cx="74.5" cy="32.5" r="2.5" fill="white"/>
<circle cx="74.5" cy="92.5" r="2.5" fill="white"/>
<circle cx="74.5" cy="42.5" r="2.5" fill="white"/>
<circle cx="74.5" cy="102.5" r="2.5" fill="white"/>
<circle cx="74.5" cy="52.5" r="2.5" fill="white"/>
<circle cx="74.5" cy="112.5" r="2.5" fill="white"/>
</svg>
