<svg width="350" height="269" viewBox="0 0 350 269" fill="none" xmlns="http://www.w3.org/2000/svg">
<path d="M385.1 143.4L353.5 185.9L290.5 207.1H290.4L258.8 249.6L195.8 270.8H195.7L164.1 313.3L121.7 327.6H123L164.5 313.6H164.6L196.2 271.1L259.2 249.9H259.3L290.9 207.4L353.9 186.2H354L385.6 143.7L448.6 122.5H448.7L469.5 94.5V93.6L448.1 122.2L385.1 143.4ZM377.2 138.1L345.6 180.6L282.6 201.8H282.5L250.9 244.3L187.9 265.5H187.8L156.1 308.1L97.9 327.7H99.2L156.4 308.4H156.5L188.1 265.9L251.1 244.7H251.2L282.8 202.2L345.8 181H345.9L377.5 138.5L440.5 117.3H440.6L469.3 78.7V77.8L440.2 117L377.2 138.1ZM408.7 31.8L377.1 74.3L314.1 95.5H314L282.4 138L219.4 159.2H219.3L187.7 201.7L124.7 222.9H124.6L93 265.4L30 286.6H29.9L-0.400002 327.4H0.199997L30.3 286.8L93.3 265.6H93.4L125 223.1L188 201.9H188.1L219.7 159.4L282.7 138.2H282.8L314.4 95.7L377.4 74.5H377.5L409.1 32.1L469.3 11.8V11.4L408.7 31.8ZM416.6 37.1L385 79.6L322 100.8H321.9L290.3 143.3L227.3 164.5H227.2L195.6 207L132.6 228.2H132.5L100.9 270.7L37.9 291.9H37.8L11.4 327.4H12L38.2 292.2L101.2 271H101.3L132.9 228.5L195.9 207.3H196L227.6 164.8L290.6 143.6H290.7L322.3 101.1L385.3 79.9H385.4L417 37.4L469.3 19.8V19.4L416.6 37.1ZM456 191.2L424.4 233.7L361.4 254.9H361.3L329.7 297.4L266.7 318.6H266.6L259.9 327.6H260.5L266.9 318.9L329.9 297.7H330L361.6 255.2L424.6 234H424.7L456.3 191.5L469.2 187.2V186.8L456 191.2ZM463.9 196.6L432.3 239.1L369.3 260.3H369.2L337.6 302.8L274.6 324H274.5L271.8 327.6H272.4L274.9 324.2L337.9 303H338L369.6 260.5L432.6 239.3H432.7L464.3 196.8L469.3 195.1V194.7L463.9 196.6ZM400.9 154L369.3 196.5L306.3 217.7H306.2L274.6 260.2L211.6 281.4H211.5L179.9 323.9L169.1 327.5H170.4L180.3 324.2H180.4L212 281.7L275 260.5H275.1L306.7 218L369.7 196.8H369.8L401.4 154.3L464.4 133.1H464.5L469.5 126.4V125.5L464.1 132.8L400.9 154ZM393 148.7L361.4 191.2L298.4 212.4H298.3L266.6 255L203.6 276.2H203.5L171.9 318.7L145.3 327.7H146.6L172.3 319.1H172.4L204 276.6L267 255.4H267.1L298.7 212.9L361.7 191.7H361.8L393.4 149.2L456.4 128H456.5L469.4 110.7V109.8L456.1 127.7L393 148.7ZM448.1 58.4L416.5 100.9L353.5 122.1H353.4L321.8 164.6L258.8 185.8H258.7L227.1 228.3L164.1 249.5H164L132.4 292L69.4 313.2H69.3L58.7 327.5H59.3L69.7 313.5L132.7 292.3H132.8L164.4 249.8L227.4 228.6H227.5L259.1 186.1L322.1 164.9H322.2L353.8 122.4L416.8 101.2H416.9L448.5 58.7L469.3 51.7V51.3L448.1 58.4ZM463.9 69L432.3 111.5L369.3 132.7H369.2L337.6 175.2L274.6 196.4H274.5L242.9 238.9L179.9 260.1H179.8L148.2 302.6L85.2 323.8H85.1L82.4 327.4H83L85.5 324L148.5 302.8H148.6L180.2 260.3L243.2 239.1H243.3L274.9 196.6L337.9 175.4H338L369.6 132.9L432.6 111.7H432.7L464.3 69.2L469.3 67.5V67.1L463.9 69ZM456 63.7L424.4 106.2L361.4 127.4H361.3L329.8 170L266.8 191.2H266.7L235.1 233.8L172.1 255H172L140.4 297.5L77.4 318.7H77.3L70.6 327.7H71.2L77.6 319L140.6 297.8H140.7L172.3 255.3L235.3 234.1H235.4L267 191.6L330 170.4H330.1L361.7 127.9L424.7 106.7H424.8L456.4 64L469.3 59.7V59.3L456 63.7ZM424.4 42.4L392.9 85L329.9 106.2H329.8L298.2 148.7L235.1 170H235L203.4 212.5L140.4 233.7H140.3L108.7 276.2L45.7 297.4H45.6L23.2 327.6H23.8L46 297.7L109 276.5H109.1L140.7 234L203.7 212.8H203.8L235.4 170.3L298.4 149.1H298.5L330.1 106.6L393.1 85.4H393.2L424.8 42.9L469.2 27.9V27.5L424.4 42.4ZM400.9 26.5L369.2 69L306.2 90.2H306.1L274.5 132.7L211.5 153.9H211.4L179.8 196.4L116.8 217.6H116.7L85.1 260.3L22.1 281.5H22L-9.6 324L-20.4 327.6H-19.1L-9.2 324.3H-9.1L22.5 281.8L85.5 260.6H85.6L117.2 218.1L180.2 196.9H180.3L211.9 154.4L274.9 133.2H275L306.6 90.7L369.6 69.5H369.7L401.3 27L464.3 5.8H464.4L469.4 -0.9V-2L464 5.3L400.9 26.5ZM432.3 47.8L400.7 90.3L337.7 111.5H337.6L306.1 154L243.1 175.2H243L211.4 217.7L148.4 238.9H148.3L116.7 281.4L53.7 302.6H53.6L35.1 327.7H35.7L54 303.1L117 281.9H117.1L148.7 239.4L211.7 218.2H211.8L243.4 175.7L306.4 154.5H306.5L338.1 112L401.1 90.8H401.2L432.8 48L469.4 35.7V35.3L432.3 47.8ZM448.1 185.9L416.5 228.4L353.5 249.6H353.4L321.8 292.1L258.8 313.3H258.7L248.1 327.7H248.7L259.1 313.7L322.1 292.5H322.2L353.8 250L416.8 228.8H416.9L448.5 186.3L469.3 179.3V178.9L448.1 185.9ZM456 -0.1L393 21.1H392.9L361.3 63.6L298.3 84.8H298.2L266.6 127.3L203.6 148.5H203.5L171.9 191L108.9 212.2H108.8L77.2 255L14.2 276.2H14.1L-17.5 318.7L-44.1 327.7H-42.8L-17.1 319.1H-17L14.6 276.6L77.6 255.4H77.7L109.3 212.9L172.3 191.7H172.4L204 149.2L267 128H267.1L298.7 85.5L361.7 64.3H361.8L393.4 21.8L456.4 0.6H456.5L469.4 -16.7V-18L456 -0.1ZM440.2 53.1L408.6 95.6L345.6 116.8H345.5L313.9 159.3L250.9 180.5H250.8L219.2 223L156.2 244.2H156.1L124.5 286.7L61.5 307.9H61.4L46.9 327.5H47.5L61.8 308.2L124.8 287H124.9L156.5 244.5L219.5 223.3H219.6L251.2 180.8L314.2 159.6H314.3L345.9 117.1L408.9 95.9H409L440.6 53.4L469.3 43.7V43.3L440.2 53.1ZM424.4 297.5L402 327.7H402.6L424.8 297.8L469.2 282.8V282.4L424.4 297.5ZM432.3 302.8L413.8 327.7H414.4L432.7 303.1L469.3 290.8V290.4L432.3 302.8ZM408.7 286.9L378.4 327.7H379L409.1 287.1L469.3 266.8V266.4L408.7 286.9ZM440.2 308.1L425.7 327.7H426.3L440.6 308.4L469.3 298.7V298.3L440.2 308.1ZM400.9 281.5L369.3 324L358.5 327.6H359.8L369.7 324.3H369.8L401.4 281.8L464.4 260.6H464.5L469.5 253.9V253L464.1 260.3L400.9 281.5ZM463.9 324.1L461.2 327.7H461.8L464.3 324.3L469.3 322.6V322.2L463.9 324.1ZM456 318.8L449.3 327.8H449.9L456.3 319.1L469.2 314.8V314.4L456 318.8ZM440.2 180.6L408.6 223.1L345.6 244.3H345.5L313.9 286.8L250.9 308H250.8L236.3 327.6H236.9L251.2 308.3L314.2 287.1H314.3L345.9 244.6L408.9 223.4H409L440.6 180.9L469.3 171.2V170.8L440.2 180.6ZM448.1 313.5L437.5 327.8H438.1L448.5 313.8L469.3 306.8V306.4L448.1 313.5ZM393 276.2L361.4 318.7L334.8 327.7H336.1L361.8 319.1H361.9L393.5 276.6L456.5 255.4H456.6L469.5 238.1V237.2L456 255L393 276.2ZM416.6 164.7L385 207.2L322 228.4H321.9L290.3 270.9L227.3 292.1H227.2L200.8 327.6H201.4L227.6 292.4L290.6 271.2H290.7L322.3 228.7L385.3 207.5H385.4L417 165L469.3 147.4V147L416.6 164.7ZM432.3 175.3L400.7 217.8L337.7 239H337.6L306.1 281.6L243.1 302.8H243L224.5 327.7H225.1L243.4 303.1L306.4 281.9H306.5L338.1 239.4L401.1 218.2H401.2L432.8 175.7L469.4 163.4V163L432.3 175.3ZM424.4 170L392.8 212.5L329.8 233.7H329.7L298.1 276.2L235.1 297.4H235L212.6 327.6H213.2L235.4 297.7L298.4 276.5H298.5L330.1 234L393.1 212.8H393.2L424.8 170.3L469.2 155.3V154.9L424.4 170ZM408.7 159.4L377.1 201.9L314.1 223.1H314L282.4 265.6L219.4 286.8H219.3L189 327.6H189.6L219.7 287L282.7 265.8H282.8L314.4 223.3L377.4 202.1H377.5L409.1 159.6L469.3 139.3V138.9L408.7 159.4ZM385.1 270.9L353.5 313.4L311.1 327.7H312.4L353.9 313.7H354L385.6 271.2L448.6 250H448.7L469.5 222V221.1L448.1 249.7L385.1 270.9ZM377.2 265.6L345.6 308.1L287.4 327.7H288.7L345.9 308.4H346L377.6 265.9L440.6 244.7H440.7L469.4 206.1V205.2L440.3 244.4L377.2 265.6ZM416.6 292.2L390.2 327.7H390.8L417 292.5L469.3 274.9V274.5L416.6 292.2ZM-24.9 122.4L38.1 101.2H38.2L69.8 58.7L132.8 37.5H132.9L164.5 -5L227.5 -26.2H227.6L230.3 -29.8H229.7L227.2 -26.4L164.2 -5.2H164.1L132.5 37.3L69.5 58.5H69.4L37.8 101L-25.2 122.2H-25.3L-56.9 164.7L-61.9 166.4V166.8L-56.5 165L-24.9 122.4ZM-40.7 175.6L-9.1 133.1L53.9 111.9H54L85.6 69.4L148.6 48.2H148.7L180.3 5.7L243.3 -15.5H243.4L254 -30H253.4L243 -16L180 5.2H179.9L148.3 47.7L85.3 68.9H85.2L53.6 111.4L-9.4 132.6H-9.5L-41.1 175.1L-61.9 182.1V182.5L-40.7 175.6ZM14.4 212.8L46 170.3L109 149.1H109.1L140.7 106.6L203.7 85.4H203.8L235.4 42.9L298.4 21.7H298.5L330.2 -21L356.8 -30H355.5L329.8 -21.4H329.7L298.1 21.1L235.1 42.3H235L203.5 85L140.5 106.2H140.4L108.8 148.7L45.8 169.9H45.7L14.1 212.5L-48.9 233.7H-49L-61.9 251.1V252L-48.6 234L14.4 212.8ZM6.6 207.5L38.2 165L101.2 143.8H101.3L132.9 101.3L195.9 80.1H196L227.6 37.6L290.6 16.4H290.7L322.3 -26.1L333.1 -30H331.8L321.9 -26.7H321.8L290.2 15.8L227.2 37H227.1L195.5 79.5L132.5 100.7H132.4L100.8 143.2L37.8 164.4H37.7L6.1 206.9L-56.9 228.1H-57L-62 234.8V235.7L-56.6 228.4L6.6 207.5ZM-45.7 -30H-46.9L-56.8 -26.7L-56.9 -26.6L-61.9 -19.9V-19L-56.5 -26.3L-45.7 -30ZM-17 191.5L14.5 149L77.5 127.8H77.6L109.2 85.3L172.2 64.1H172.3L203.9 21.6L266.9 0.4H267L289.5 -30H288.9L266.7 -0.1L203.7 21.1H203.6L172 63.6L109 84.8H108.9L77.3 127.3L14.3 148.5H14.2L-17.4 191L-61.9 206.2V206.6L-17 191.5ZM-24.9 186.2L6.7 143.7L69.7 122.5H69.8L101.4 80L164.4 58.8H164.5L196.1 16.3L259.1 -4.9H259.2L277.6 -30H277L258.7 -5.4L195.7 15.8H195.6L164 58.3L101 79.5H100.9L69.3 122L6.3 143.2H6.2L-25.4 185.7L-61.9 198.2V198.6L-24.9 186.2ZM-32.8 180.9L-1.2 138.4L61.8 117.2H61.9L93.5 74.7L156.5 53.5H156.6L188.1 10.8L251.1 -10.4H251.2L265.8 -30H265.2L250.9 -10.7L187.9 10.5H187.8L156.1 53.1L93.1 74.3H93L61.4 116.8L-1.6 138H-1.7L-33.3 180.5L-61.9 190.3V190.7L-32.8 180.9ZM-40.7 303.1L-9.1 260.6L53.9 239.4H54L85.6 196.9L148.6 175.7H148.7L180.3 133.2L243.3 112H243.4L275 69.5L338 48.3H338.1L369.7 5.8L432.7 -15.4H432.8L443.4 -30H442.8L432.4 -16L369.4 5.2H369.3L337.7 47.7L274.7 68.9H274.6L243 111.4L180 132.6H179.9L148.3 175.1L85.3 196.3H85.2L53.6 238.8L-9.4 260H-9.5L-41.1 302.5L-61.9 309.5V309.9L-40.7 303.1ZM-48.6 297.8L-17 255.3L46 234.1H46.1L77.7 191.6L140.7 170.4H140.8L172.4 127.9L235.4 106.7H235.5L267 64L330 42.8H330.1L361.7 0.299999L424.7 -20.9H424.8L431.5 -29.9H430.9L424.5 -21.2L361.5 0H361.4L329.8 42.5L266.8 63.7H266.7L235.1 106.2L172.1 127.4H172L140.4 170L77.4 191.2H77.3L45.7 233.7L-17.3 254.9H-17.4L-49 297.4L-61.9 301.9V302.3L-48.6 297.8ZM-24.9 250L38.1 228.8H38.2L69.8 186.3L132.8 165.1H132.9L164.5 122.6L227.5 101.4H227.6L259.2 58.9L322.2 37.7H322.3L353.9 -4.8L416.9 -26H417L419.7 -29.6H419.1L416.6 -26.2L353.6 -5H353.5L321.9 37.5L258.9 58.7H258.8L227.2 101.2L164.2 122.4H164.1L132.5 164.9L69.5 186.1H69.4L37.8 228.6L-25.2 249.8H-25.3L-56.9 292.2L-61.9 293.9V294.3L-56.5 292.5L-24.9 250ZM22.3 218.1L53.9 175.6L116.9 154.4H117L148.6 111.9L211.6 90.7H211.7L243.4 48L306.4 26.8H306.5L338.1 -15.7L380.5 -30H379.2L337.7 -16H337.6L306.1 26.5L243.1 47.7H243L211.4 90.2L148.4 111.4H148.3L116.7 154L53.7 175.2H53.6L22 217.7L-41 238.9H-41.1L-61.9 267V267.9L-40.7 239.4L22.3 218.1ZM-24.9 313.7L6.7 271.2L69.7 250H69.8L101.4 207.5L164.4 186.3H164.5L196.1 143.8L259.1 122.6H259.2L290.8 80.1L353.8 58.9H353.9L385.5 16.4L448.5 -4.8H448.6L467 -30H466.4L448.1 -5.4L385.1 15.8H385L353.4 58.3L290.4 79.5H290.3L258.7 122L195.7 143.2H195.6L164 185.7L101 206.9H100.9L69.3 249.4L6.3 270.6H6.2L-25.4 313.1L-61.9 325.8V326.2L-24.9 313.7ZM30.2 223.4L61.8 180.9L124.8 159.7H124.9L156.5 117.2L219.5 96H219.6L251.2 53.5L314.2 32.3H314.3L345.9 -10.2L404.1 -30H402.8L345.6 -10.7H345.5L313.9 31.8L250.9 53H250.8L219.2 95.5L156.2 116.7H156.1L124.5 159.2L61.5 180.4H61.4L29.8 222.9L-33.2 244.1H-33.3L-61.9 283V283.9L-32.8 244.7L30.2 223.4ZM-9.1 196.8L22.5 154.3L85.5 133.1H85.6L117.2 90.6L180.2 69.4H180.3L211.9 26.9L274.9 5.7H275L301.3 -30H300.7L274.5 5.2L211.5 26.4H211.4L179.8 69L116.8 90.2H116.7L85.1 132.8L22.1 154H22L-9.6 196.5L-61.9 214.2V214.6L-9.1 196.8ZM-32.8 308.4L-1.2 265.9L61.8 244.7H61.9L93.5 202.2L156.5 181H156.6L188.2 138.5L251.2 117.3H251.3L282.9 74.8L345.9 53.6H346L377.6 11.1L440.6 -10.1H440.7L455.2 -30H454.6L440.3 -10.7L377.3 10.5H377.2L345.6 53L282.6 74.2H282.5L250.9 116.7L187.9 137.9H187.8L156.1 180.6L93.1 201.8H93L61.4 244.3L-1.6 265.5H-1.7L-33.3 308L-61.9 317.8V318.2L-32.8 308.4ZM-48.6 170.3L-17 127.8L46 106.6H46.1L77.7 64L140.7 42.8H140.8L172.4 0.299999L235.4 -20.9H235.5L242.2 -29.9H241.6L235.1 -21.3L172.1 -0.1H172L140.4 42.4L77.4 63.6H77.3L45.7 106.1L-17.3 127.3H-17.4L-49 170L-61.9 174.3V174.7L-48.6 170.3ZM-32.8 53.4L-1.2 10.9L61.8 -10.3H61.9L76.4 -30H75.8L61.5 -10.7L-1.5 10.5H-1.6L-33.2 53.1L-61.9 62.7V63.1L-32.8 53.4ZM-17 64L14.6 21.5L77.6 0.299999H77.7L100.1 -30H99.5L77.3 -0.1L14.3 21.1H14.2L-17.5 63.7L-61.9 78.7V79.1L-17 64ZM-9.1 69.3L22.5 26.8L85.5 5.6H85.6L111.9 -30H111.3L85.1 5.2L22.1 26.5H22L-9.6 69L-61.9 86.6V87L-9.1 69.3ZM-24.9 58.7L6.7 16.2L69.7 -5H69.8L88.3 -30H87.7L69.4 -5.4L6.4 15.8H6.3L-25.3 58.4L-61.9 70.7V71.1L-24.9 58.7ZM-1.3 74.6L30.3 32.1L93.3 10.9H93.4L123.8 -30H123.1L93 10.6L30 31.8H29.9L-1.7 74.3L-61.9 94.6V95L-1.3 74.6ZM-22 -30H-23.3L-48.9 -21.4H-49L-61.9 -4V-3.1L-48.6 -21L-22 -30ZM25.4 -30H24.1L-33.2 -10.7H-33.3L-61.9 27.9V28.8L-32.8 -10.4L25.4 -30ZM1.7 -30H0.399998L-41 -16H-41.1L-61.9 12V12.9L-40.7 -15.6L1.7 -30ZM6.6 80L38.2 37.5L101.2 16.3H101.3L132.9 -26.2L143.7 -30H142.4L132.5 -26.7H132.4L100.8 15.8L37.8 37H37.7L6.1 79.5L-56.9 100.7H-57L-62 107.4V108.3L-56.6 101L6.6 80ZM-40.7 48L-9.1 5.5L53.9 -15.7H54L64.6 -30H64L53.6 -16L-9.4 5.2H-9.5L-41.1 47.8L-61.9 54.8V55.2L-40.7 48ZM30.2 95.9L61.8 53.4L124.8 32.2H124.9L156.5 -10.3L214.7 -30H213.4L156.2 -10.7H156.1L124.5 31.8L61.5 53H61.4L29.8 95.5L-33.2 116.7H-33.3L-61.9 155.4V156.3L-32.8 117.1L30.2 95.9ZM14.4 85.3L46.1 42.7L109.1 21.5H109.2L140.8 -21L167.4 -30H166.1L140.4 -21.4H140.3L108.7 21.1L45.7 42.3H45.6L14.1 85L-48.9 106.2H-49L-61.9 123.6V124.5L-48.6 106.6L14.4 85.3ZM22.3 90.6L54 48L117 26.8H117.1L148.7 -15.7L191.1 -30H189.8L148.3 -16H148.2L116.6 26.5L53.6 47.7H53.5L21.9 90.2L-41.1 111.4H-41.2L-61.9 139.5V140.4L-40.7 111.9L22.3 90.6ZM-48.6 42.7L-17 0.200001L46 -21H46.1L52.8 -30H52.1L45.7 -21.3L-17.3 -0.1H-17.4L-49 42.4L-61.9 46.8V47.2L-48.6 42.7ZM-24.9 -5.1L38.1 -26.3H38.2L40.9 -29.9H40.3L37.8 -26.5L-25.2 -5.3H-25.3L-56.9 37.1L-61.9 38.8V39.2L-56.5 37.4L-24.9 -5.1ZM-1.3 202.2L30.3 159.7L93.3 138.5H93.4L125 96L188 74.8H188.1L219.7 32.3L282.7 11.1H282.8L313.2 -30H312.6L282.5 10.6L219.5 31.8H219.4L187.8 74.3L124.8 95.5H124.7L93.1 138L30.1 159.2H30L-1.6 201.7L-61.9 222.1V222.5L-1.3 202.2Z" fill="#CCCCCC" fill-opacity="0.15"/>
</svg>
